<?xml version="1.0" encoding="UTF-8" standalone="no"?>
<!-- Created with Inkscape (http://www.inkscape.org/) -->

<svg
   width="259.61533mm"
   height="94.98542mm"
   viewBox="0 0 259.61533 94.985419"
   version="1.1"
   id="svg5"
   inkscape:version="1.1.2 (b8e25be833, 2022-02-05)"
   sodipodi:docname="logo.svg"
   inkscape:export-filename="D:\Dev\rezonant\obscene\packages\frontend\src\assets\logo.128.png"
   inkscape:export-xdpi="82.464455"
   inkscape:export-ydpi="82.464455"
   xmlns:inkscape="http://www.inkscape.org/namespaces/inkscape"
   xmlns:sodipodi="http://sodipodi.sourceforge.net/DTD/sodipodi-0.dtd"
   xmlns="http://www.w3.org/2000/svg"
   xmlns:svg="http://www.w3.org/2000/svg">
  <sodipodi:namedview
     id="namedview7"
     pagecolor="#000000"
     bordercolor="#666666"
     borderopacity="1.0"
     inkscape:pageshadow="2"
     inkscape:pageopacity="0"
     inkscape:pagecheckerboard="0"
     inkscape:document-units="mm"
     showgrid="false"
     fit-margin-top="0"
     fit-margin-left="0"
     fit-margin-right="0"
     fit-margin-bottom="0"
     inkscape:zoom="1"
     inkscape:cx="487"
     inkscape:cy="271"
     inkscape:window-width="3840"
     inkscape:window-height="2126"
     inkscape:window-x="3829"
     inkscape:window-y="-11"
     inkscape:window-maximized="1"
     inkscape:current-layer="layer1" />
  <defs
     id="defs2" />
  <g
     inkscape:label="Layer 1"
     inkscape:groupmode="layer"
     id="layer1"
     transform="translate(56.170563,-69.508656)">
    <g
       aria-label="obscene"
       id="text2569-6-4-1-5"
       style="font-size:50.485px;line-height:1.25;font-family:'Asap Condensed';-inkscape-font-specification:'Asap Condensed, Normal';letter-spacing:0px;word-spacing:0px;fill:#c280ff;fill-opacity:1;stroke-width:1.26213">
      <path
         d="m 65.348093,130.67173 q -4.74559,0 -7.26984,-3.43298 -2.473765,-3.43298 -2.473765,-9.94554 0,-6.56306 2.473765,-10.09701 2.52425,-3.53395 7.26984,-3.53395 4.695105,0 7.118386,3.53395 2.473765,3.48347 2.473765,10.09701 0,6.56305 -2.42328,9.99603 -2.423281,3.38249 -7.168871,3.38249 z m -0.10097,-3.63492 q 2.675705,0 3.93783,-2.37279 1.31261,-2.42328 1.31261,-7.47178 0,-5.04851 -1.31261,-7.47179 -1.262125,-2.42328 -3.93783,-2.42328 -2.675705,0 -3.93783,2.42328 -1.21164,2.3728 -1.21164,7.47179 0,5.0485 1.21164,7.47178 1.262125,2.37279 3.93783,2.37279 z"
         id="path302"
         style="fill:#c280ff;fill-opacity:1" />
      <path
         d="m 87.606058,130.67173 q -1.766975,0 -3.33201,-0.95921 -1.565035,-0.95922 -2.72619,-2.82716 -0.10097,1.26212 -0.454365,2.47376 -0.20194,0.65631 -0.60582,0.90873 -0.353395,0.20194 -1.0097,0.20194 h -0.30291 q -1.666005,0 -1.666005,-1.11067 V 93.51477 q 0,-1.11067 1.91843,-1.11067 h 0.555335 q 1.867945,0 1.867945,1.11067 v 12.72222 q 1.11067,-1.26213 2.32231,-1.91843 1.262125,-0.65631 3.0291,-0.65631 3.786375,0 6.0582,3.53395 2.271825,3.48347 2.271825,9.7941 0,4.0388 -1.0097,7.16887 -0.959215,3.07958 -2.776675,4.79607 -1.766975,1.71649 -4.13977,1.71649 z m -1.060185,-3.6854 q 2.170855,0 3.281525,-2.62522 1.161155,-2.62522 1.161155,-7.4213 0,-9.54167 -4.84656,-9.54167 -2.52425,0 -4.291225,2.27183 v 13.83289 q 0.959215,1.66601 2.170855,2.57474 1.262125,0.90873 2.52425,0.90873 z"
         id="path304"
         style="fill:#c280ff;fill-opacity:1" />
      <path
         d="m 103.90386,130.82319 q -1.81746,0 -3.43298,-0.50485 -1.565038,-0.55534 -2.524253,-1.31261 -0.90873,-0.75728 -0.90873,-1.31261 0,-0.55534 0.656305,-1.56504 0.656305,-1.0097 1.060185,-1.0097 0.10097,0 0.858245,0.55534 0.807758,0.55533 1.817458,1.0097 1.0097,0.40388 2.27183,0.40388 1.86794,0 2.82716,-0.90873 1.0097,-0.95922 1.0097,-2.77668 0,-1.71649 -1.11067,-2.82716 -1.06019,-1.16115 -3.33201,-2.22134 -2.77668,-1.31261 -4.139773,-3.0291 -1.31261,-1.71649 -1.31261,-4.54365 0,-3.18056 2.069885,-5.14947 2.120368,-2.0194 5.351408,-2.0194 2.06989,0 3.83686,0.6563 1.76698,0.65631 1.76698,1.51455 0,0.60582 -0.60582,1.66601 -0.55534,1.06018 -0.95922,1.06018 -0.10097,0 -1.21164,-0.60582 -1.06018,-0.6563 -2.57473,-0.6563 -1.46407,0 -2.47377,0.80776 -0.95921,0.80776 -0.95921,2.27182 0,1.61552 0.95921,2.62522 1.0097,1.0097 2.82716,1.91844 3.13007,1.51455 4.54365,3.38249 1.46407,1.86795 1.46407,5.0485 0,3.3825 -2.22134,5.45238 -2.22134,2.06989 -5.55335,2.06989 z"
         id="path306"
         style="fill:#c280ff;fill-opacity:1" />
      <path
         d="m 123.22484,130.67173 q -5.40189,0 -8.02711,-3.23104 -2.57474,-3.23104 -2.57474,-10.39991 0,-7.4213 2.72619,-10.39991 2.77668,-2.97862 7.72421,-2.97862 2.32231,0 4.29122,0.70679 2.0194,0.70679 2.0194,1.61552 0,0.60582 -0.60582,1.66601 -0.55533,1.06018 -0.95921,1.06018 -0.0505,0 -0.55534,-0.20194 -2.12037,-1.21164 -4.08928,-1.21164 -2.97862,0 -4.49317,2.27183 -1.46406,2.22134 -1.46406,7.37081 0,5.35141 1.41358,7.72421 1.41358,2.37279 4.6951,2.37279 2.32231,0 4.19026,-1.11067 0.20194,-0.10097 0.35339,-0.20194 0.20194,-0.15145 0.30291,-0.20194 0.50485,0 1.06019,1.0097 0.60582,0.95922 0.60582,1.56504 0,0.55533 -1.11067,1.16115 -1.06019,0.60582 -2.62522,1.0097 -1.56504,0.40388 -2.87765,0.40388 z"
         id="path308"
         style="fill:#c280ff;fill-opacity:1" />
      <path
         d="m 140.26808,130.67173 q -5.35141,0 -7.97663,-3.28152 -2.57473,-3.28153 -2.57473,-10.04652 0,-6.71451 2.52425,-10.19797 2.52425,-3.48347 7.42129,-3.48347 4.3922,0 6.61354,3.3825 2.22134,3.33201 2.22134,9.79409 0,0.45437 -0.60582,1.26213 -0.60582,0.80776 -1.06019,0.80776 h -12.57076 q 0.25242,4.29122 1.61552,6.20965 1.36309,1.91843 4.34171,1.91843 1.81746,0 3.0291,-0.50485 1.21164,-0.50485 1.96891,-1.06018 0.75728,-0.55534 0.90873,-0.55534 0.50485,0 1.11067,1.0097 0.65631,1.0097 0.65631,1.51455 0,0.60582 -1.06019,1.41358 -1.0097,0.75728 -2.77667,1.31261 -1.76698,0.50485 -3.78638,0.50485 z m 3.73589,-15.39792 q 0,-7.97664 -4.49316,-7.97664 -4.84656,0 -5.25044,7.97664 z"
         id="path310"
         style="fill:#c280ff;fill-opacity:1" />
      <path
         d="m 152.14105,130.46979 q -1.86794,0 -1.86794,-1.11067 v -17.82121 q 0,-3.28152 -0.25243,-4.74559 -0.25242,-1.46406 -0.25242,-1.61552 0,-0.60582 1.06018,-0.85824 1.11067,-0.30291 1.86795,-0.30291 0.70679,0 0.95921,0.6563 0.30291,0.65631 0.45437,1.51455 0.15145,0.85825 0.20194,1.26213 1.16115,-1.76698 2.82716,-2.77668 1.666,-1.0097 3.53395,-1.0097 3.13007,0 4.84656,2.12037 1.71649,2.06989 1.71649,5.75529 v 17.82121 q 0,1.11067 -1.91843,1.11067 h -0.50485 q -1.96892,0 -1.96892,-1.11067 v -17.41733 q 0,-2.22134 -0.90873,-3.38249 -0.90873,-1.21164 -2.6757,-1.21164 -1.3631,0 -2.62522,1.0097 -1.26213,0.95921 -2.0194,2.52425 v 18.47751 q 0,1.11067 -1.91843,1.11067 z"
         id="path312"
         style="fill:#c280ff;fill-opacity:1" />
      <path
         d="m 179.47727,130.67173 q -5.35141,0 -7.97663,-3.28152 -2.57473,-3.28153 -2.57473,-10.04652 0,-6.71451 2.52425,-10.19797 2.52425,-3.48347 7.42129,-3.48347 4.3922,0 6.61354,3.3825 2.22134,3.33201 2.22134,9.79409 0,0.45437 -0.60582,1.26213 -0.60582,0.80776 -1.06019,0.80776 h -12.57076 q 0.25242,4.29122 1.61552,6.20965 1.36309,1.91843 4.34171,1.91843 1.81746,0 3.0291,-0.50485 1.21164,-0.50485 1.96891,-1.06018 0.75728,-0.55534 0.90873,-0.55534 0.50485,0 1.11067,1.0097 0.65631,1.0097 0.65631,1.51455 0,0.60582 -1.06019,1.41358 -1.0097,0.75728 -2.77667,1.31261 -1.76698,0.50485 -3.78638,0.50485 z m 3.73589,-15.39792 q 0,-7.97664 -4.49316,-7.97664 -4.84656,0 -5.25044,7.97664 z"
         id="path314"
         style="fill:#c280ff;fill-opacity:1" />
    </g>
    <path
       id="path4085"
       style="fill:#c280ff;fill-opacity:1;fill-rule:evenodd;stroke-width:0.262267"
       d="M -2.2177262,74.773112 A 42.37559,42.37559 0 0 0 -44.593422,117.1488 42.37559,42.37559 0 0 0 -2.2177262,159.52453 42.37559,42.37559 0 0 0 40.157996,117.1488 42.37559,42.37559 0 0 0 -2.2177262,74.773112 Z m 0.756549,4.345966 c -0.286729,0.09237 -0.570812,0.192088 -0.852143,0.299747 -0.545677,0.208835 -1.082543,0.440346 -1.605598,0.701252 -0.513609,0.255878 -1.014862,0.534299 -1.503786,0.835078 -0.484372,0.298053 -0.954299,0.621241 -1.407133,0.965305 -0.416931,0.315278 -0.819388,0.647674 -1.207162,0.997876 -0.420529,0.379757 -0.825659,0.778325 -1.207161,1.197346 -0.362241,0.397854 -0.709243,0.809546 -1.0361088,1.237139 -0.314986,0.411162 -0.611029,0.835078 -0.887809,1.271746 -0.284851,0.448548 -0.549404,0.908659 -0.793244,1.380279 -0.23749,0.459369 -0.45596,0.929931 -0.65318,1.408721 -0.20016,0.485854 -0.37687,0.980387 -0.53642,1.481031 a 18.030922,18.030922 0 0 0 1.08781,13.525262 18.377766,18.377766 0 0 0 3.0556208,4.35375 18.059993,18.059993 0 0 0 7.66207,4.74802 18.059993,18.059993 0 0 0 15.5980082,-9.03509 c 0.258472,0.0116 0.516785,0.0274 0.774621,0.048 a 22.013477,22.013477 0 0 1 8.697146,2.56574 22.267742,22.267742 0 0 1 6.799078,5.66375 22.093495,22.093495 0 0 1 4.684474,10.96211 18.76081,18.76081 0 0 0 -0.722445,-2.20867 18.148138,18.148138 0 0 0 -0.912601,-1.93683 c -0.245559,-0.44955 -0.511836,-0.88815 -0.79322,-1.31566 -0.273897,-0.41617 -0.567188,-0.81989 -0.875401,-1.21132 -0.276278,-0.35187 -0.565653,-0.69244 -0.867648,-1.02163 -0.302578,-0.3311 -0.617273,-0.65034 -0.94361,-0.95755 -0.306573,-0.28856 -0.621692,-0.56843 -0.948267,-0.83407 -0.116443,-0.0949 -0.239104,-0.18167 -0.357611,-0.27387 a 22.267742,22.267742 0 0 1 2.008664,2.70319 22.093495,22.093495 0 0 1 3.340365,11.44373 18.76081,18.76081 0 0 0 -0.453205,-2.27944 18.148138,18.148138 0 0 0 -0.674899,-2.03192 c -0.190077,-0.4757 -0.401638,-0.94287 -0.62992,-1.40094 -0.222197,-0.44596 -0.465296,-0.88197 -0.724509,-1.30742 -0.232225,-0.38237 -0.478472,-0.75485 -0.738981,-1.11775 -0.260853,-0.36492 -0.534882,-0.71951 -0.822166,-1.06352 -0.269849,-0.32311 -0.549302,-0.63879 -0.841799,-0.94155 -0.283316,-0.29393 -0.575521,-0.57872 -0.876432,-0.85471 -0.232886,-0.2136 -0.476859,-0.41526 -0.721413,-0.61547 a 22.267742,22.267742 0 0 1 2.868031,4.72786 22.093495,22.093495 0 0 1 1.7136,11.79775 18.76081,18.76081 0 0 0 -0.13126,-2.3208 18.148138,18.148138 0 0 0 -0.384995,-2.10581 c -0.121946,-0.49753 -0.266647,-0.98997 -0.428916,-1.47537 -0.157903,-0.47255 -0.337926,-0.93782 -0.535358,-1.39526 -0.176689,-0.41098 -0.368776,-0.81457 -0.576183,-1.21026 -0.207486,-0.39766 -0.429551,-0.78668 -0.666115,-1.16736 -0.222197,-0.35759 -0.454845,-0.70903 -0.702284,-1.04955 -0.239606,-0.33057 -0.489267,-0.65321 -0.748797,-0.96843 -0.251645,-0.30562 -0.51517,-0.60161 -0.78703,-0.88934 -0.289771,-0.30602 -0.589915,-0.60175 -0.899689,-0.88678 -0.309986,-0.28591 -0.629735,-0.5596 -0.959617,-0.82164 -0.323427,-0.25792 -0.655532,-0.50456 -0.995813,-0.73951 -0.335782,-0.23156 -0.678444,-0.45122 -1.028885,-0.65937 -0.357902,-0.21193 -0.722418,-0.41153 -1.09347,-0.59894 -0.379201,-0.19092 -0.764725,-0.36837 -1.155991,-0.53175 -0.39542,-0.16426 -0.795576,-0.31459 -1.20097,-0.45165 -0.420503,-0.14149 -0.845529,-0.26754 -1.274869,-0.37827 a 18.04538,18.04538 0 0 0 -16.9498712,4.46587 17.93665,17.93665 0 0 0 -1.77765595,5.02089 18.207928,18.207928 0 0 0 -0.0037,6.70606 17.949142,17.949142 0 0 0 0.846455,3.02461 c 0.182748,0.4844 0.38578895,0.95945 0.60928295,1.42576 0.11123,0.23206 0.227277,0.46177 0.348297,0.68884 a 0.76996803,0.76996803 0 0 1 0.09559,0.17621 c 0.0069,0.0399 -0.04657,0.0993 -0.07027,0.13695 -0.06141,0.0969 -0.12364,0.19296 -0.186558,0.28887 a 22.302119,22.302119 0 0 1 -5.414645,5.71749 22.074376,22.074376 0 0 1 -9.8500738,4.06847 22.392229,22.392229 0 0 1 -6.01977,0.0729 21.990443,21.990443 0 0 1 -6.21305,-1.71979 c 0.43968,0.13959 0.88413,0.26352 1.33323,0.36896 a 18.406667,18.406667 0 0 0 2.10325,0.36536 18.116201,18.116201 0 0 0 8.38965,-1.05264 22.074376,22.074376 0 0 1 -3.10729,0.34107 22.392229,22.392229 0 0 1 -5.98517,-0.64751 21.990443,21.990443 0 0 1 -5.96347,-2.44999 c 0.41987,0.19116 0.84675,0.36771 1.28003,0.52607 a 18.406667,18.406667 0 0 0 2.04433,0.61391 18.116201,18.116201 0 0 0 10.10325,-0.57049 22.074376,22.074376 0 0 1 -5.29839,0.11935 22.392229,22.392229 0 0 1 -5.83684,-1.47534 21.990443,21.990443 0 0 1 -5.56348,-3.25665 c 0.38913,0.24778 0.78669,0.48148 1.19373,0.69865 a 18.406667,18.406667 0 0 0 1.93889,0.89297 18.116201,18.116201 0 0 0 11.49284,0.5674 18.327446,18.327446 0 0 0 5.33302,-2.50269 18.015241,18.015241 0 0 0 6.4140578,-7.84913 18.249194,18.249194 0 0 0 1.343078,-5.28598 18.090348,18.090348 0 0 0 -0.492998,-6.28023 18.090348,18.090348 0 0 0 -13.5428378,-8.34419 c -0.43034,-0.04 -0.86172,-0.0647 -1.29346,-0.0739 -0.23363,-0.006 -0.46705,-0.007 -0.70073,-0.003 -0.0449,0 -0.0523,0.006 -0.0816,-0.0265 a 0.41699251,0.41699251 0 0 1 -0.0429,-0.0832 c -0.0235,-0.0462 -0.047,-0.0926 -0.0703,-0.13898 -0.0511,-0.10218 -0.10128,-0.20505 -0.15089,-0.308 a 22.152715,22.152715 0 0 1 9.887273,-29.32174 c -0.253444,0.162878 -0.501943,0.332237 -0.746203,0.508503 -0.47382,0.341921 -0.93396,0.703474 -1.37253,1.089845 -0.43074,0.379148 -0.84339,0.777029 -1.2387,1.193218 -0.39164,0.41238 -0.76322,0.845212 -1.1126,1.293971 -0.32205,0.411745 -0.62563,0.836851 -0.91054,1.274869 -0.30892,0.474953 -0.59819,0.963692 -0.85936,1.466585 -0.248,0.477494 -0.47752,0.964248 -0.68369,1.4614 -0.16235,0.390393 -0.30067,0.789305 -0.43407,1.189593 A 22.152715,22.152715 0 0 1 -6.7410002,79.426492 c -0.271092,0.131392 -0.538427,0.269664 -0.802005,0.415476 -0.511255,0.282839 -1.010814,0.587084 -1.492435,0.918289 -0.472943,0.324935 -0.930805,0.670137 -1.3730288,1.036108 -0.438124,0.362612 -0.858335,0.748057 -1.258833,1.151864 -0.36894,0.370284 -0.72107,0.755677 -1.05627,1.15652 -0.36352,0.434631 -0.70896,0.885852 -1.02836,1.353926 -0.30329,0.444447 -0.5901,0.900457 -0.85423,1.369431 -0.25464,0.451009 -0.4885,0.911886 -0.70176,1.382845 -0.21206,0.46728 -0.4014,0.943001 -0.57258,1.426289 A 22.152715,22.152715 0 0 1 -1.4612132,79.118994 Z m 0.64285905,28.083062 a 2.7933678,2.7933678 0 0 1 2.79362895,2.7931 2.7933678,2.7933678 0 0 1 -2.79362895,2.79363 2.7933678,2.7933678 0 0 1 -2.79312705,-2.79363 2.7933678,2.7933678 0 0 1 2.79312705,-2.7931 z" />
  </g>
</svg>
