<?xml version="1.0" encoding="UTF-8" standalone="no"?>
<svg
   xmlns:dc="http://purl.org/dc/elements/1.1/"
   xmlns:cc="http://creativecommons.org/ns#"
   xmlns:rdf="http://www.w3.org/1999/02/22-rdf-syntax-ns#"
   xmlns:svg="http://www.w3.org/2000/svg"
   xmlns="http://www.w3.org/2000/svg"
   xmlns:sodipodi="http://sodipodi.sourceforge.net/DTD/sodipodi-0.dtd"
   xmlns:inkscape="http://www.inkscape.org/namespaces/inkscape"
   inkscape:export-ydpi="170.60722"
   inkscape:export-xdpi="170.60722"
   inkscape:export-filename="D:\Dev\astronautlabs\site\frontend\src\assets\logos\splicepoint\logo.png"
   sodipodi:docname="logo.svg"
   inkscape:version="1.0 (4035a4fb49, 2020-05-01)"
   id="svg9028"
   version="1.1"
   viewBox="0 0 298.11182 94.985428"
   height="94.985428mm"
   width="298.11182mm">
  <defs
     id="defs9022" />
  <sodipodi:namedview
     inkscape:window-maximized="1"
     inkscape:window-y="-11"
     inkscape:window-x="3829"
     inkscape:window-height="2066"
     inkscape:window-width="3840"
     fit-margin-bottom="0"
     fit-margin-right="0"
     fit-margin-left="0"
     fit-margin-top="0"
     showgrid="false"
     inkscape:document-rotation="0"
     inkscape:current-layer="layer1"
     inkscape:document-units="mm"
     inkscape:cy="387.68349"
     inkscape:cx="883.25844"
     inkscape:zoom="1"
     inkscape:pageshadow="2"
     inkscape:pageopacity="0.0"
     borderopacity="1.0"
     bordercolor="#666666"
     pagecolor="#ffffff"
     id="base" />
  <metadata
     id="metadata9025">
    <rdf:RDF>
      <cc:Work
         rdf:about="">
        <dc:format>image/svg+xml</dc:format>
        <dc:type
           rdf:resource="http://purl.org/dc/dcmitype/StillImage" />
        <dc:title></dc:title>
      </cc:Work>
    </rdf:RDF>
  </metadata>
  <g
     transform="translate(181.12825,10.07498)"
     id="layer1"
     inkscape:groupmode="layer"
     inkscape:label="Layer 1">
    <g
       style="font-style:normal;font-variant:normal;font-weight:normal;font-stretch:normal;font-size:50.4851px;line-height:1.25;font-family:'Asap Condensed';-inkscape-font-specification:'Asap Condensed, Normal';font-variant-ligatures:normal;font-variant-caps:normal;font-variant-numeric:normal;font-feature-settings:normal;text-align:start;letter-spacing:0px;word-spacing:0px;writing-mode:lr-tb;text-anchor:start;fill:#ffb511;fill-opacity:0.994118;stroke:none;stroke-width:1.26213"
       id="text2569-6-4-1"
       aria-label="splicepoint">
      <path
         id="path9603"
         style="font-style:normal;font-variant:normal;font-weight:normal;font-stretch:normal;font-size:50.4851px;font-family:'Asap Condensed';-inkscape-font-specification:'Asap Condensed, Normal';font-variant-ligatures:normal;font-variant-caps:normal;font-variant-numeric:normal;font-feature-settings:normal;text-align:start;writing-mode:lr-tb;text-anchor:start;fill:#ffb511;fill-opacity:0.994118;stroke-width:1.26213"
         d="m -63.395949,51.239553 q -1.817463,0 -3.432987,-0.504851 -1.565038,-0.555336 -2.524255,-1.312613 -0.908731,-0.757276 -0.908731,-1.312613 0,-0.555336 0.656306,-1.565038 0.656306,-1.009702 1.060187,-1.009702 0.10097,0 0.858247,0.555336 0.807761,0.555337 1.817463,1.009702 1.009702,0.403881 2.27183,0.403881 1.867948,0 2.827165,-0.908732 1.009702,-0.959216 1.009702,-2.77668 0,-1.766978 -1.110672,-2.978621 -1.060187,-1.211642 -3.332016,-2.322314 -2.776681,-1.262128 -4.139779,-2.928136 -1.312612,-1.666009 -1.312612,-4.392204 0,-3.180561 2.069889,-5.14948 2.120374,-2.019404 5.35142,-2.019404 2.06989,0 3.836868,0.656306 1.766979,0.656306 1.766979,1.514553 0,0.605821 -0.605822,1.666008 -0.555336,1.060188 -0.959217,1.060188 -0.10097,0 -1.211642,-0.605822 -1.060187,-0.656306 -2.57474,-0.656306 -1.464068,0 -2.47377,0.807762 -0.959217,0.807761 -0.959217,2.271829 0,1.716494 0.959217,2.877651 1.009702,1.110672 2.827166,2.019404 3.079591,1.413583 4.543659,3.231046 1.464068,1.817464 1.464068,4.84657 0,3.382501 -2.221345,5.452391 -2.221344,2.069889 -5.553361,2.069889 z" />
      <path
         id="path9605"
         style="font-style:normal;font-variant:normal;font-weight:normal;font-stretch:normal;font-size:50.4851px;font-family:'Asap Condensed';-inkscape-font-specification:'Asap Condensed, Normal';font-variant-ligatures:normal;font-variant-caps:normal;font-variant-numeric:normal;font-feature-settings:normal;text-align:start;writing-mode:lr-tb;text-anchor:start;fill:#ffb511;fill-opacity:0.994118;stroke-width:1.26213"
         d="m -51.197448,61.286088 q -1.918434,0 -1.918434,-1.110673 v -28.22117 q 0,-3.281532 -0.252425,-4.7456 -0.252426,-1.514553 -0.252426,-1.666008 0,-0.605821 1.060187,-0.858247 1.060187,-0.252425 1.867949,-0.252425 0.706791,0 0.959217,0.656306 0.302911,0.656306 0.454366,1.565038 0.151455,0.858247 0.20194,1.211642 1.161158,-1.867948 2.675711,-2.827165 1.565038,-0.959217 3.332016,-0.959217 2.423285,0 4.240749,1.716493 1.817463,1.716494 2.77668,4.84657 0.959217,3.079591 0.959217,7.067914 0,6.310637 -2.27183,9.844594 -2.271829,3.533957 -6.108697,3.533957 -1.716493,0 -2.978621,-0.656306 -1.211642,-0.656306 -2.322314,-1.918434 v 11.662058 q 0,1.110673 -1.918434,1.110673 z M -44.48293,47.3522 q 4.897055,0 4.897055,-9.592169 0,-4.745599 -1.161157,-7.370825 -1.110672,-2.625225 -3.332017,-2.625225 -1.262127,0 -2.524255,0.908732 -1.211642,0.908732 -2.170859,2.57474 V 45.08037 q 1.766978,2.27183 4.291233,2.27183 z" />
      <path
         id="path9607"
         style="font-style:normal;font-variant:normal;font-weight:normal;font-stretch:normal;font-size:50.4851px;font-family:'Asap Condensed';-inkscape-font-specification:'Asap Condensed, Normal';font-variant-ligatures:normal;font-variant-caps:normal;font-variant-numeric:normal;font-feature-settings:normal;text-align:start;writing-mode:lr-tb;text-anchor:start;fill:#ffb511;fill-opacity:0.994118;stroke-width:1.26213"
         d="m -27.38046,51.088097 q -2.069889,0 -3.735898,-1.312612 -1.615523,-1.363098 -1.615523,-4.796085 V 13.931064 q 0,-1.110672 2.019404,-1.110672 h 0.201941 q 2.019403,0 2.019403,1.110672 v 30.644455 q 0,2.877651 1.867949,2.877651 0.605821,0 1.009702,-0.10097 0.403881,-0.151455 0.605821,-0.151455 0.454366,0 0.757277,0.959217 0.30291,0.908731 0.30291,1.413582 0,0.757277 -1.110672,1.161158 -1.110672,0.353395 -2.322314,0.353395 z" />
      <path
         id="path9609"
         style="font-style:normal;font-variant:normal;font-weight:normal;font-stretch:normal;font-size:50.4851px;font-family:'Asap Condensed';-inkscape-font-specification:'Asap Condensed, Normal';font-variant-ligatures:normal;font-variant-caps:normal;font-variant-numeric:normal;font-feature-settings:normal;text-align:start;writing-mode:lr-tb;text-anchor:start;fill:#ffb511;fill-opacity:0.994118;stroke-width:1.26213"
         d="m -19.989412,20.140731 q -2.221345,0 -2.221345,-1.110672 v -2.57474 q 0,-1.110672 2.322315,-1.110672 2.221344,0 2.221344,1.110672 v 2.57474 q 0,1.110672 -2.322314,1.110672 z m -0.100971,30.745426 q -2.019404,0 -2.019404,-1.110672 V 25.391182 q 0,-1.110673 2.019404,-1.110673 h 0.201941 q 2.019404,0 2.019404,1.110673 v 24.384303 q 0,1.110672 -2.019404,1.110672 z" />
      <path
         id="path9611"
         style="font-style:normal;font-variant:normal;font-weight:normal;font-stretch:normal;font-size:50.4851px;font-family:'Asap Condensed';-inkscape-font-specification:'Asap Condensed, Normal';font-variant-ligatures:normal;font-variant-caps:normal;font-variant-numeric:normal;font-feature-settings:normal;text-align:start;writing-mode:lr-tb;text-anchor:start;fill:#ffb511;fill-opacity:0.994118;stroke-width:1.26213"
         d="m -4.6271031,51.088097 q -5.4019059,0 -8.0271309,-3.231046 -2.57474,-3.231046 -2.57474,-10.399931 0,-7.421309 2.726195,-10.39993 2.7766809,-2.978621 7.7242206,-2.978621 2.3223146,0 4.29123353,0.706791 2.01940397,0.706792 2.01940397,1.615524 0,0.605821 -0.60582118,1.666008 -0.5553361,1.060187 -0.9592169,1.060187 -0.0504851,0 -0.55533609,-0.20194 -2.12037423,-1.211643 -4.08929313,-1.211643 -2.9786208,0 -4.4931738,2.27183 -1.464068,2.221344 -1.464068,7.370824 0,5.351421 1.4135829,7.72422 1.4135828,2.3728 4.6951142,2.3728 2.3223146,0 4.19026332,-1.110672 0.2019404,-0.10097 0.3533957,-0.20194 0.2019404,-0.151456 0.3029106,-0.201941 0.504851,0 1.06018708,1.009702 0.6058212,0.959217 0.6058212,1.565038 0,0.555336 -1.11067218,1.161158 -1.0601871,0.605821 -2.62522522,1.009702 -1.5650381,0.40388 -2.8776507,0.40388 z" />
      <path
         id="path9613"
         style="font-style:normal;font-variant:normal;font-weight:normal;font-stretch:normal;font-size:50.4851px;font-family:'Asap Condensed';-inkscape-font-specification:'Asap Condensed, Normal';font-variant-ligatures:normal;font-variant-caps:normal;font-variant-numeric:normal;font-feature-settings:normal;text-align:start;writing-mode:lr-tb;text-anchor:start;fill:#ffb511;fill-opacity:0.994118;stroke-width:1.26213"
         d="m 12.276908,51.088097 q -5.3514209,0 -7.9766461,-3.281531 -2.57474,-3.281532 -2.57474,-10.046535 0,-6.714518 2.5242549,-10.19799 2.524255,-3.483472 7.4213102,-3.483472 4.392203,0 6.613548,3.382502 2.221344,3.332016 2.221344,9.794109 0,0.454366 -0.605821,1.262128 -0.605821,0.807761 -1.060187,0.807761 H 6.2691808 q 0.2524255,4.291234 1.6155232,6.209667 1.3630977,1.918434 4.341719,1.918434 1.817463,0 3.029106,-0.504851 1.211642,-0.504851 1.968918,-1.060187 0.757277,-0.555336 0.908732,-0.555336 0.504851,0 1.110672,1.009702 0.656307,1.009702 0.656307,1.514553 0,0.605821 -1.060187,1.413583 -1.009702,0.757276 -2.776681,1.312612 -1.766978,0.504851 -3.786382,0.504851 z m 3.735897,-15.397955 q 0,-7.976646 -4.493174,-7.976646 -4.8465694,0 -5.2504502,7.976646 z" />
      <path
         id="path9615"
         style="font-style:normal;font-variant:normal;font-weight:normal;font-stretch:normal;font-size:50.4851px;font-family:'Asap Condensed';-inkscape-font-specification:'Asap Condensed, Normal';font-variant-ligatures:normal;font-variant-caps:normal;font-variant-numeric:normal;font-feature-settings:normal;text-align:start;writing-mode:lr-tb;text-anchor:start;fill:#ffb511;fill-opacity:0.994118;stroke-width:1.26213"
         d="m 24.380884,61.286088 q -1.918434,0 -1.918434,-1.110673 v -28.22117 q 0,-3.281532 -0.252425,-4.7456 -0.252426,-1.514553 -0.252426,-1.666008 0,-0.605821 1.060187,-0.858247 1.060187,-0.252425 1.867949,-0.252425 0.706791,0 0.959217,0.656306 0.30291,0.656306 0.454366,1.565038 0.151455,0.858247 0.20194,1.211642 1.161157,-1.867948 2.67571,-2.827165 1.565039,-0.959217 3.332017,-0.959217 2.423285,0 4.240748,1.716493 1.817464,1.716494 2.776681,4.84657 0.959217,3.079591 0.959217,7.067914 0,6.310637 -2.27183,9.844594 -2.271829,3.533957 -6.108697,3.533957 -1.716493,0 -2.978621,-0.656306 -1.211642,-0.656306 -2.322314,-1.918434 v 11.662058 q 0,1.110673 -1.918434,1.110673 z M 31.095402,47.3522 q 4.897055,0 4.897055,-9.592169 0,-4.745599 -1.161157,-7.370825 -1.110673,-2.625225 -3.332017,-2.625225 -1.262127,0 -2.524255,0.908732 -1.211642,0.908732 -2.170859,2.57474 V 45.08037 q 1.766978,2.27183 4.291233,2.27183 z" />
      <path
         id="path9617"
         style="font-style:normal;font-variant:normal;font-weight:normal;font-stretch:normal;font-size:50.4851px;font-family:'Asap Condensed';-inkscape-font-specification:'Asap Condensed, Normal';font-variant-ligatures:normal;font-variant-caps:normal;font-variant-numeric:normal;font-feature-settings:normal;text-align:start;writing-mode:lr-tb;text-anchor:start;fill:#ffb511;fill-opacity:0.994118;stroke-width:1.26213"
         d="m 52.184341,51.088097 q -4.7456,0 -7.269855,-3.432986 -2.473769,-3.432987 -2.473769,-9.945565 0,-6.563063 2.473769,-10.09702 2.524255,-3.533957 7.269855,-3.533957 4.695114,0 7.118399,3.533957 2.47377,3.483472 2.47377,10.09702 0,6.563063 -2.423285,9.99605 -2.423285,3.382501 -7.168884,3.382501 z m -0.10097,-3.634927 q 2.67571,0 3.937837,-2.3728 1.312613,-2.423284 1.312613,-7.471794 0,-5.04851 -1.312613,-7.471795 -1.262127,-2.423285 -3.937837,-2.423285 -2.675711,0 -3.937838,2.423285 -1.211643,2.3728 -1.211643,7.471795 0,5.04851 1.211643,7.471794 1.262127,2.3728 3.937838,2.3728 z" />
      <path
         id="path9619"
         style="font-style:normal;font-variant:normal;font-weight:normal;font-stretch:normal;font-size:50.4851px;font-family:'Asap Condensed';-inkscape-font-specification:'Asap Condensed, Normal';font-variant-ligatures:normal;font-variant-caps:normal;font-variant-numeric:normal;font-feature-settings:normal;text-align:start;writing-mode:lr-tb;text-anchor:start;fill:#ffb511;fill-opacity:0.994118;stroke-width:1.26213"
         d="m 66.040918,20.140731 q -2.221344,0 -2.221344,-1.110672 v -2.57474 q 0,-1.110672 2.322314,-1.110672 2.221345,0 2.221345,1.110672 v 2.57474 q 0,1.110672 -2.322315,1.110672 z m -0.10097,30.745426 q -2.019404,0 -2.019404,-1.110672 V 25.391182 q 0,-1.110673 2.019404,-1.110673 h 0.20194 q 2.019404,0 2.019404,1.110673 v 24.384303 q 0,1.110672 -2.019404,1.110672 z" />
      <path
         id="path9621"
         style="font-style:normal;font-variant:normal;font-weight:normal;font-stretch:normal;font-size:50.4851px;font-family:'Asap Condensed';-inkscape-font-specification:'Asap Condensed, Normal';font-variant-ligatures:normal;font-variant-caps:normal;font-variant-numeric:normal;font-feature-settings:normal;text-align:start;writing-mode:lr-tb;text-anchor:start;fill:#ffb511;fill-opacity:0.994118;stroke-width:1.26213"
         d="m 72.961907,50.886157 q -1.867949,0 -1.867949,-1.110672 v -17.82124 q 0,-3.281532 -0.252425,-4.7456 -0.252426,-1.464068 -0.252426,-1.615523 0,-0.605821 1.060187,-0.858247 1.110672,-0.30291 1.867949,-0.30291 0.706791,0 0.959217,0.656306 0.30291,0.656306 0.454366,1.514553 0.151455,0.858247 0.20194,1.262127 1.161157,-1.766978 2.827166,-2.77668 1.666008,-1.009702 3.533957,-1.009702 3.130076,0 4.846569,2.120374 1.716494,2.069889 1.716494,5.755302 v 17.82124 q 0,1.110672 -1.918434,1.110672 h -0.504851 q -1.968919,0 -1.968919,-1.110672 v -17.41736 q 0,-2.221344 -0.908732,-3.382501 -0.908732,-1.211643 -2.67571,-1.211643 -1.363098,0 -2.625225,1.009702 -1.262128,0.959217 -2.019404,2.524255 v 18.477547 q 0,1.110672 -1.918434,1.110672 z" />
      <path
         id="path9623"
         style="font-style:normal;font-variant:normal;font-weight:normal;font-stretch:normal;font-size:50.4851px;font-family:'Asap Condensed';-inkscape-font-specification:'Asap Condensed, Normal';font-variant-ligatures:normal;font-variant-caps:normal;font-variant-numeric:normal;font-feature-settings:normal;text-align:start;writing-mode:lr-tb;text-anchor:start;fill:#ffb511;fill-opacity:0.994118;stroke-width:1.26213"
         d="m 96.997216,51.088097 q -2.221344,0 -3.937837,-1.312612 Q 91.342885,48.412387 91.342885,44.9794 V 28.016407 h -1.666008 q -0.504851,0 -0.757277,-0.353396 -0.252425,-0.353396 -0.252425,-1.161157 v -0.605821 q 0,-0.807762 0.252425,-1.161158 0.252426,-0.353395 0.757277,-0.353395 h 1.666008 l 0.605821,-5.300936 q 0.100971,-1.110672 1.615524,-1.110672 h 0.504851 q 1.514553,0 1.514553,1.110672 v 5.300936 h 3.332016 q 0.555336,0 0.757277,0.353395 0.252425,0.353396 0.252425,1.161158 v 0.605821 q 0,0.807761 -0.252425,1.161157 -0.201941,0.353396 -0.757277,0.353396 h -3.332016 v 16.256202 q 0,1.817463 0.504851,2.524255 0.504851,0.656306 1.464068,0.656306 0.656306,0 1.110672,-0.10097 0.454366,-0.151455 0.605821,-0.151455 0.454366,0 0.757274,0.908731 0.30291,0.908732 0.30291,1.514553 0,0.807762 -1.060184,1.161158 -1.009702,0.30291 -2.27183,0.30291 z" />
    </g>
    <path
       id="circle2565-2-1-1"
       style="fill:#ffb511;fill-opacity:0.994118;stroke:none;stroke-width:0.769144;stroke-linecap:round;stroke-opacity:0.532646"
       d="m -127.36818,-4.5738468 c -23.30841,-2.65e-5 -42.20366,18.8951918 -42.20363,42.2036338 -3e-5,23.308442 18.89522,42.203608 42.20363,42.203608 23.30845,0 42.203665,-18.895166 42.203639,-42.203608 2.6e-5,-23.308442 -18.895189,-42.2036603 -42.203639,-42.2036338 z m 0,16.3612778 6.76754,6.764945 c 3.72224,3.720544 6.76754,6.844109 6.76754,6.941185 0,0.0971 -2.31023,0.176212 -5.13403,0.176212 h -5.13405 v 9.736376 9.736349 l -9.15554,9.166357 c -5.0356,5.041556 -9.26213,9.166146 -9.39271,9.162759 -0.25415,-0.0037 -4.32117,-3.929988 -4.32117,-4.171844 0,-0.07943 3.67522,-3.818652 8.16745,-8.309557 l 8.16798,-8.165412 v -8.577236 -8.577792 h -5.13406 c -2.82368,0 -5.13402,-0.07911 -5.13402,-0.176212 -3e-5,-0.09708 3.0454,-3.220641 6.76753,-6.941185 z m 9.11572,37.384274 c 0.45744,0.05133 1.52823,1.046586 5.37744,4.881351 2.81022,2.799636 5.10977,5.159772 5.10977,5.24465 0,0.08477 -0.89892,1.033172 -1.99729,2.107354 -1.09828,1.074234 -2.12169,1.981306 -2.27478,2.015913 -0.15314,0.03461 -2.58731,-2.24835 -5.40898,-5.073597 l -5.12993,-5.13715 1.86243,-1.884654 c 1.02473,-1.03669 2.05827,-1.992683 2.2965,-2.123889 0.0466,-0.0254 0.0995,-0.0368 0.16484,-0.02945 z" />
  </g>
</svg>
