<?xml version="1.0" encoding="UTF-8" standalone="no"?>
<svg
   xmlns:dc="http://purl.org/dc/elements/1.1/"
   xmlns:cc="http://creativecommons.org/ns#"
   xmlns:rdf="http://www.w3.org/1999/02/22-rdf-syntax-ns#"
   xmlns:svg="http://www.w3.org/2000/svg"
   xmlns="http://www.w3.org/2000/svg"
   xmlns:sodipodi="http://sodipodi.sourceforge.net/DTD/sodipodi-0.dtd"
   xmlns:inkscape="http://www.inkscape.org/namespaces/inkscape"
   sodipodi:docname="logo.svg"
   inkscape:version="1.0 (4035a4fb49, 2020-05-01)"
   id="svg2980"
   version="1.1"
   viewBox="0 0 285.38977 94.98542"
   height="94.98542mm"
   width="285.38977mm">
  <defs
     id="defs2974" />
  <sodipodi:namedview
     inkscape:window-maximized="1"
     inkscape:window-y="-11"
     inkscape:window-x="3829"
     inkscape:window-height="2066"
     inkscape:window-width="3840"
     fit-margin-bottom="0"
     fit-margin-right="0"
     fit-margin-left="0"
     fit-margin-top="0"
     showgrid="false"
     inkscape:document-rotation="0"
     inkscape:current-layer="layer1"
     inkscape:document-units="mm"
     inkscape:cy="308.07143"
     inkscape:cx="1213.6049"
     inkscape:zoom="0.35"
     inkscape:pageshadow="2"
     inkscape:pageopacity="0.0"
     borderopacity="1.0"
     bordercolor="#666666"
     pagecolor="#ffffff"
     id="base" />
  <metadata
     id="metadata2977">
    <rdf:RDF>
      <cc:Work
         rdf:about="">
        <dc:format>image/svg+xml</dc:format>
        <dc:type
           rdf:resource="http://purl.org/dc/dcmitype/StillImage" />
        <dc:title></dc:title>
      </cc:Work>
    </rdf:RDF>
  </metadata>
  <g
     transform="translate(215.26631,-66.656101)"
     id="layer1"
     inkscape:groupmode="layer"
     inkscape:label="Layer 1">
    <g
       transform="matrix(0.28222226,0,0,0.28222226,-540.02613,52.03023)"
       id="g4396">
      <path
         inkscape:connector-curvature="0"
         id="path842-8"
         d="m 1342.0707,69.642082 a 151.00614,151.00614 0 0 0 -151.0061,151.006208 151.00614,151.00614 0 0 0 151.0061,151.0061 151.00614,151.00614 0 0 0 151.0061,-151.0061 151.00614,151.00614 0 0 0 -151.0061,-151.006208 z m 0.8804,54.199998 c 8.9756,0.081 18.1306,1.917 27.0205,5.7389 31.4152,13.5056 48.3021,48.12101 39.7632,81.50771 -2.5662,10.0338 -1.4271,7.9916 -45.7961,82.1813 -11.7354,19.6228 -21.4946,35.6774 -21.6851,35.6774 -0.1905,0 -14.0562,-22.9658 -30.8139,-51.034 -16.7577,-28.0682 -31.1426,-52.3868 -31.9662,-54.0427 -2.2499,-4.524 -4.3899,-10.8383 -5.614,-16.56 -1.5048,-7.0342 -1.5048,-20.6651 0,-27.6992 7.2649,-33.95811 37.0356,-56.05711 69.0916,-55.76941 z m -0.6804,40.19231 c -11.1323,0.026 -22.1164,6.0345 -27.4257,17.0729 -11.6807,24.2852 11.2378,50.6389 36.8605,42.3839 21.7217,-6.9982 28.1915,-34.7227 11.8537,-50.8015 -5.9853,-5.8905 -13.6717,-8.6732 -21.2885,-8.6553 z"
         style="fill:#a200e4;fill-opacity:1;stroke:none;stroke-width:2.5822;stroke-linecap:round;stroke-opacity:0.532646" />
      <g
         id="text821-8"
         style="font-style:normal;font-variant:normal;font-weight:normal;font-stretch:normal;font-size:58.3197px;line-height:1.25;font-family:'Asap Condensed';-inkscape-font-specification:'Asap Condensed, Normal';font-variant-ligatures:normal;font-variant-caps:normal;font-variant-numeric:normal;font-feature-settings:normal;text-align:start;letter-spacing:0px;word-spacing:0px;writing-mode:lr-tb;text-anchor:start;fill:#a200e4;fill-opacity:1;stroke:none;stroke-width:1.458"
         aria-label="waypoint"
         transform="matrix(3.2063413,0,0,3.2063413,1212.6265,24.955482)">
        <path
           inkscape:connector-curvature="0"
           id="path858-1"
           style="font-style:normal;font-variant:normal;font-weight:normal;font-stretch:normal;font-size:58.3197px;font-family:'Asap Condensed';-inkscape-font-specification:'Asap Condensed, Normal';font-variant-ligatures:normal;font-variant-caps:normal;font-variant-numeric:normal;font-feature-settings:normal;text-align:start;writing-mode:lr-tb;text-anchor:start;fill:#a200e4;fill-opacity:1;stroke-width:1.458"
           d="m 112.47492,77.003152 q -1.92455,0 -2.09951,-0.933116 l -6.18189,-27.643557 q -0.17496,-1.049755 -0.17496,-1.166394 0,-0.991436 2.39111,-0.991436 2.50774,0 2.6827,0.933116 l 3.26591,18.603997 0.2916,1.399674 0.87479,4.782219 h 0.2916 q 0.17496,-1.166395 1.1664,-6.240213 l 3.5575,-18.487357 q 0.23328,-0.991436 2.04119,-0.991436 h 1.10808 q 1.86623,0 2.09951,0.991436 l 3.61582,18.487357 0.34992,1.691273 q 0.5832,2.741028 0.81648,4.49062 h 0.2916 l 0.64151,-3.557504 q 0.34992,-1.341354 0.52488,-2.566069 l 3.20759,-18.603997 q 0.17496,-0.933116 2.6827,-0.933116 2.27447,0 2.27447,0.991436 l -0.11663,0.991435 -6.24022,27.818516 q -0.17496,0.933116 -2.09951,0.933116 h -1.98287 q -1.92455,0 -2.09951,-0.933116 L 122.156,58.865713 q -0.64152,-3.382545 -0.8748,-5.190457 h -0.23328 q -0.17496,1.807912 -0.8748,5.190457 l -3.5575,17.204323 q -0.23328,0.933116 -2.09951,0.933116 z" />
        <path
           inkscape:connector-curvature="0"
           id="path860-1"
           style="font-style:normal;font-variant:normal;font-weight:normal;font-stretch:normal;font-size:58.3197px;font-family:'Asap Condensed';-inkscape-font-specification:'Asap Condensed, Normal';font-variant-ligatures:normal;font-variant-caps:normal;font-variant-numeric:normal;font-feature-settings:normal;text-align:start;writing-mode:lr-tb;text-anchor:start;fill:#a200e4;fill-opacity:1;stroke-width:1.458"
           d="m 147.65419,77.236431 q -3.90742,0 -6.24021,-2.332789 -2.27447,-2.39111 -2.27447,-6.706771 0,-4.37398 2.27447,-6.70677 2.27447,-2.332789 5.65701,-3.090946 3.38255,-0.816476 7.75653,-0.874796 v -2.741028 q 0,-1.982871 -1.22472,-3.265905 -1.22471,-1.283035 -3.8491,-1.283035 -2.04119,0 -3.61583,0.524878 -1.51631,0.466558 -2.62438,1.049755 -1.10808,0.524878 -1.28304,0.524878 -0.5832,0 -1.34135,-1.108075 -0.69984,-1.166395 -0.69984,-1.749592 0,-0.758157 1.34136,-1.574633 1.39967,-0.816477 3.61582,-1.341354 2.27447,-0.524878 4.66558,-0.524878 4.66558,0 7.28997,2.33279 2.62438,2.332789 2.62438,6.473491 v 13.41354 q 0,3.849103 0.34992,5.540376 0.34992,1.632952 0.34992,1.807911 0,0.699837 -1.10807,1.049756 -1.10808,0.291598 -2.04119,0.291598 -0.8748,0 -1.28304,-0.874796 -0.40824,-0.933115 -0.75816,-2.566068 -3.09094,3.732463 -7.58156,3.732463 z m 0.99143,-4.607259 q 3.79079,0 6.1819,-3.324225 V 61.7817 q -3.26591,0.05832 -5.42374,0.466558 -2.09951,0.408238 -3.61582,1.807912 -1.51632,1.341354 -1.51632,4.082382 0,4.49062 4.37398,4.49062 z" />
        <path
           inkscape:connector-curvature="0"
           id="path862-9"
           style="font-style:normal;font-variant:normal;font-weight:normal;font-stretch:normal;font-size:58.3197px;font-family:'Asap Condensed';-inkscape-font-specification:'Asap Condensed, Normal';font-variant-ligatures:normal;font-variant-caps:normal;font-variant-numeric:normal;font-feature-settings:normal;text-align:start;writing-mode:lr-tb;text-anchor:start;fill:#a200e4;fill-opacity:1;stroke-width:1.458"
           d="m 180.24461,46.268649 q 2.21615,0 2.21615,0.991436 0,0.291598 -0.23328,1.049755 l -11.43067,39.482464 q -0.40824,1.224715 -2.33279,1.224715 h -1.22471 q -1.86623,0 -1.86623,-0.933116 0,-0.233279 0.23327,-0.991436 l 4.31567,-13.821778 q -0.69984,-0.11664 -0.93312,-0.758157 L 161.34901,48.30984 q -0.23328,-0.699837 -0.23328,-1.049755 0,-0.991436 2.27447,-0.991436 h 0.81648 q 1.86623,0 2.09951,0.933116 l 4.31566,15.80465 q 0.2916,1.108075 1.10808,4.665579 h 0.34992 l 1.04975,-4.665579 4.25734,-15.80465 q 0.23328,-0.933116 2.15783,-0.933116 z" />
        <path
           inkscape:connector-curvature="0"
           id="path864-4"
           style="font-style:normal;font-variant:normal;font-weight:normal;font-stretch:normal;font-size:58.3197px;font-family:'Asap Condensed';-inkscape-font-specification:'Asap Condensed, Normal';font-variant-ligatures:normal;font-variant-caps:normal;font-variant-numeric:normal;font-feature-settings:normal;text-align:start;writing-mode:lr-tb;text-anchor:start;fill:#a200e4;fill-opacity:1;stroke-width:1.458"
           d="m 187.59048,89.017019 q -2.21615,0 -2.21615,-1.283035 V 55.13325 q 0,-3.790783 -0.2916,-5.482056 -0.2916,-1.749592 -0.2916,-1.924551 0,-0.699837 1.22471,-0.991436 1.22472,-0.291599 2.15783,-0.291599 0.81648,0 1.10808,0.758157 0.34992,0.758157 0.52488,1.807912 0.17496,0.991435 0.23328,1.399674 1.34135,-2.157831 3.09094,-3.265906 1.80791,-1.108075 3.8491,-1.108075 2.79935,0 4.89886,1.982871 2.09951,1.982871 3.20759,5.598695 1.10807,3.557505 1.10807,8.164764 0,7.289968 -2.62439,11.372349 -2.62438,4.082382 -7.05668,4.082382 -1.98287,0 -3.44087,-0.758156 -1.39967,-0.758157 -2.68271,-2.216151 v 13.47186 q 0,1.283035 -2.21615,1.283035 z M 195.347,72.92077 q 5.65702,0 5.65702,-11.08075 0,-5.482056 -1.34136,-8.514682 -1.28303,-3.032627 -3.8491,-3.032627 -1.45799,0 -2.91599,1.049756 -1.39967,1.049755 -2.50775,2.974306 v 15.979609 q 2.04119,2.624388 4.95718,2.624388 z" />
        <path
           inkscape:connector-curvature="0"
           id="path866-2"
           style="font-style:normal;font-variant:normal;font-weight:normal;font-stretch:normal;font-size:58.3197px;font-family:'Asap Condensed';-inkscape-font-specification:'Asap Condensed, Normal';font-variant-ligatures:normal;font-variant-caps:normal;font-variant-numeric:normal;font-feature-settings:normal;text-align:start;writing-mode:lr-tb;text-anchor:start;fill:#a200e4;fill-opacity:1;stroke-width:1.458"
           d="m 219.55213,77.236431 q -5.48205,0 -8.39804,-3.965742 -2.85767,-3.965742 -2.85767,-11.488989 0,-7.581566 2.85767,-11.663948 2.91599,-4.082382 8.39804,-4.082382 5.42374,0 8.22309,4.082382 2.85767,4.024062 2.85767,11.663948 0,7.581566 -2.79935,11.547309 -2.79935,3.907422 -8.28141,3.907422 z M 219.4355,73.03741 q 3.09094,0 4.54893,-2.741028 1.51632,-2.799347 1.51632,-8.631321 0,-5.831974 -1.51632,-8.631322 -1.45799,-2.799348 -4.54893,-2.799348 -3.09095,0 -4.54894,2.799348 -1.39968,2.741028 -1.39968,8.631322 0,5.831974 1.39968,8.631321 1.45799,2.741028 4.54894,2.741028 z" />
        <path
           inkscape:connector-curvature="0"
           id="path868-7"
           style="font-style:normal;font-variant:normal;font-weight:normal;font-stretch:normal;font-size:58.3197px;font-family:'Asap Condensed';-inkscape-font-specification:'Asap Condensed, Normal';font-variant-ligatures:normal;font-variant-caps:normal;font-variant-numeric:normal;font-feature-settings:normal;text-align:start;writing-mode:lr-tb;text-anchor:start;fill:#a200e4;fill-opacity:1;stroke-width:1.458"
           d="m 235.697,41.48643 q -2.56606,0 -2.56606,-1.283034 v -2.974307 q 0,-1.283034 2.6827,-1.283034 2.56607,0 2.56607,1.283034 v 2.974307 q 0,1.283034 -2.68271,1.283034 z m -0.11663,35.516722 q -2.33279,0 -2.33279,-1.283034 V 47.551683 q 0,-1.283034 2.33279,-1.283034 h 0.23327 q 2.33279,0 2.33279,1.283034 v 28.168435 q 0,1.283034 -2.33279,1.283034 z" />
        <path
           inkscape:connector-curvature="0"
           id="path870-7"
           style="font-style:normal;font-variant:normal;font-weight:normal;font-stretch:normal;font-size:58.3197px;font-family:'Asap Condensed';-inkscape-font-specification:'Asap Condensed, Normal';font-variant-ligatures:normal;font-variant-caps:normal;font-variant-numeric:normal;font-feature-settings:normal;text-align:start;writing-mode:lr-tb;text-anchor:start;fill:#a200e4;fill-opacity:1;stroke-width:1.458"
           d="m 244.30709,77.003152 q -2.15783,0 -2.15783,-1.283034 V 55.13325 q 0,-3.790783 -0.2916,-5.482056 -0.2916,-1.691272 -0.2916,-1.866232 0,-0.699837 1.22472,-0.991435 1.28303,-0.349919 2.15783,-0.349919 0.81647,0 1.10807,0.758157 0.34992,0.758157 0.52488,1.749592 0.17496,0.991436 0.23328,1.457994 1.34135,-2.041191 3.2659,-3.207586 1.92455,-1.166395 4.08239,-1.166395 3.61582,0 5.59869,2.449429 1.98287,2.39111 1.98287,6.648451 v 20.586868 q 0,1.283034 -2.21615,1.283034 h -0.5832 q -2.27447,0 -2.27447,-1.283034 v -20.12031 q 0,-2.566069 -1.04975,-3.907423 -1.04976,-1.399674 -3.09095,-1.399674 -1.57463,0 -3.03262,1.166395 -1.458,1.108075 -2.33279,2.915987 v 21.345025 q 0,1.283034 -2.21615,1.283034 z" />
        <path
           inkscape:connector-curvature="0"
           id="path872-0"
           style="font-style:normal;font-variant:normal;font-weight:normal;font-stretch:normal;font-size:58.3197px;font-family:'Asap Condensed';-inkscape-font-specification:'Asap Condensed, Normal';font-variant-ligatures:normal;font-variant-caps:normal;font-variant-numeric:normal;font-feature-settings:normal;text-align:start;writing-mode:lr-tb;text-anchor:start;fill:#a200e4;fill-opacity:1;stroke-width:1.458"
           d="m 272.73584,77.236431 q -2.56607,0 -4.54894,-1.516313 -1.98287,-1.574633 -1.98287,-5.540375 V 50.58431 h -1.92455 q -0.5832,0 -0.8748,-0.408238 -0.2916,-0.408238 -0.2916,-1.341354 v -0.699837 q 0,-0.933116 0.2916,-1.341354 0.2916,-0.408238 0.8748,-0.408238 h 1.92455 l 0.69984,-6.123573 q 0.11664,-1.283034 1.86623,-1.283034 h 0.5832 q 1.74959,0 1.74959,1.283034 v 6.123573 h 3.8491 q 0.64152,0 0.8748,0.408238 0.2916,0.408238 0.2916,1.341354 v 0.699837 q 0,0.933116 -0.2916,1.341354 -0.23328,0.408238 -0.8748,0.408238 h -3.8491 v 18.778956 q 0,2.099511 0.5832,2.915987 0.58319,0.758157 1.69127,0.758157 0.75816,0 1.28303,-0.11664 0.52488,-0.174959 0.69984,-0.174959 0.52488,0 0.8748,1.049756 0.34991,1.049755 0.34991,1.749592 0,0.933116 -1.22471,1.341354 -1.16639,0.349918 -2.62439,0.349918 z" />
      </g>
    </g>
  </g>
</svg>
