<?xml version="1.0" encoding="UTF-8" standalone="no"?>
<svg
   xmlns:dc="http://purl.org/dc/elements/1.1/"
   xmlns:cc="http://creativecommons.org/ns#"
   xmlns:rdf="http://www.w3.org/1999/02/22-rdf-syntax-ns#"
   xmlns:svg="http://www.w3.org/2000/svg"
   xmlns="http://www.w3.org/2000/svg"
   xmlns:sodipodi="http://sodipodi.sourceforge.net/DTD/sodipodi-0.dtd"
   xmlns:inkscape="http://www.inkscape.org/namespaces/inkscape"
   sodipodi:docname="logo2.svg"
   inkscape:version="1.0 (4035a4fb49, 2020-05-01)"
   id="svg1849"
   version="1.1"
   viewBox="0 0 371.07635 94.985428"
   height="94.985428mm"
   width="371.07635mm">
  <defs
     id="defs1843" />
  <sodipodi:namedview
     fit-margin-bottom="0"
     fit-margin-right="0"
     fit-margin-left="0"
     fit-margin-top="0"
     inkscape:window-maximized="1"
     inkscape:window-y="-11"
     inkscape:window-x="3829"
     inkscape:window-height="2066"
     inkscape:window-width="3840"
     showgrid="false"
     inkscape:document-rotation="0"
     inkscape:current-layer="layer1"
     inkscape:document-units="mm"
     inkscape:cy="287.65447"
     inkscape:cx="669.75812"
     inkscape:zoom="1.4142136"
     inkscape:pageshadow="2"
     inkscape:pageopacity="0.0"
     borderopacity="1.0"
     bordercolor="#666666"
     pagecolor="#ffffff"
     id="base" />
  <metadata
     id="metadata1846">
    <rdf:RDF>
      <cc:Work
         rdf:about="">
        <dc:format>image/svg+xml</dc:format>
        <dc:type
           rdf:resource="http://purl.org/dc/dcmitype/StillImage" />
        <dc:title></dc:title>
      </cc:Work>
    </rdf:RDF>
  </metadata>
  <g
     transform="translate(370.74652,89.826046)"
     id="layer1"
     inkscape:groupmode="layer"
     inkscape:label="Layer 1">
    <ellipse
       ry="33.718334"
       rx="34.031296"
       cy="-41.936386"
       cx="-316.57306"
       id="path1776-9"
       style="fill:#cccccc;fill-opacity:0.988235;stroke-width:0.479893;stroke-linecap:round;stroke-opacity:0.532646" />
    <g
       style="font-style:normal;font-variant:normal;font-weight:normal;font-stretch:normal;font-size:50.4851px;line-height:1.25;font-family:'Asap Condensed';-inkscape-font-specification:'Asap Condensed, Normal';font-variant-ligatures:normal;font-variant-caps:normal;font-variant-numeric:normal;font-feature-settings:normal;text-align:start;letter-spacing:0px;word-spacing:0px;writing-mode:lr-tb;text-anchor:start;fill:#4e4e4e;fill-opacity:1;stroke:none;stroke-width:1.26213"
       id="text2569-6-4"
       aria-label="astronaut labs">
      <path
         id="path2428"
         style="font-style:normal;font-variant:normal;font-weight:normal;font-stretch:normal;font-size:50.4851px;font-family:'Asap Condensed';-inkscape-font-specification:'Asap Condensed, Normal';font-variant-ligatures:normal;font-variant-caps:normal;font-variant-numeric:normal;font-feature-settings:normal;text-align:start;writing-mode:lr-tb;text-anchor:start;fill:#4e4e4e;fill-opacity:1;stroke-width:1.26213"
         d="m -251.39873,-28.662969 q -3.38251,0 -5.40191,-2.019404 -1.96892,-2.069889 -1.96892,-5.805786 0,-3.786383 1.96892,-5.805787 1.96892,-2.019404 4.89705,-2.67571 2.92814,-0.706791 6.71452,-0.757277 v -2.372799 q 0,-1.716494 -1.06018,-2.827166 -1.06019,-1.110672 -3.33202,-1.110672 -1.76698,0 -3.13008,0.454366 -1.31261,0.403881 -2.27183,0.908732 -0.95921,0.454366 -1.11067,0.454366 -0.50485,0 -1.16116,-0.959217 -0.60582,-1.009702 -0.60582,-1.514553 0,-0.656307 1.16116,-1.363098 1.21164,-0.706791 3.13008,-1.161157 1.96891,-0.454366 4.0388,-0.454366 4.03881,0 6.31064,2.019404 2.27183,2.019404 2.27183,5.603846 v 11.611573 q 0,3.332016 0.30291,4.796084 0.30291,1.413583 0.30291,1.565038 0,0.605822 -0.95921,0.908732 -0.95922,0.252426 -1.76698,0.252426 -0.75728,0 -1.11068,-0.757277 -0.35339,-0.807761 -0.6563,-2.221344 -2.67571,3.231046 -6.56306,3.231046 z m 0.85824,-3.988323 q 3.28153,0 5.35142,-2.87765 v -6.512578 q -2.82716,0.05049 -4.69511,0.403881 -1.81747,0.353395 -3.13008,1.565038 -1.31261,1.161157 -1.31261,3.533957 0,3.887352 3.78638,3.887352 z" />
      <path
         id="path2430"
         style="font-style:normal;font-variant:normal;font-weight:normal;font-stretch:normal;font-size:50.4851px;font-family:'Asap Condensed';-inkscape-font-specification:'Asap Condensed, Normal';font-variant-ligatures:normal;font-variant-caps:normal;font-variant-numeric:normal;font-feature-settings:normal;text-align:start;writing-mode:lr-tb;text-anchor:start;fill:#4e4e4e;fill-opacity:1;stroke-width:1.26213"
         d="m -232.19733,-28.511514 q -1.81746,0 -3.43298,-0.504851 -1.56504,-0.555336 -2.52426,-1.312612 -0.90873,-0.757277 -0.90873,-1.312613 0,-0.555336 0.65631,-1.565038 0.6563,-1.009702 1.06018,-1.009702 0.10097,0 0.85825,0.555336 0.80776,0.555336 1.81746,1.009702 1.00971,0.403881 2.27183,0.403881 1.86795,0 2.82717,-0.908732 1.0097,-0.959217 1.0097,-2.77668 0,-1.766979 -1.11067,-2.978621 -1.06019,-1.211642 -3.33202,-2.322315 -2.77668,-1.262127 -4.13978,-2.928135 -1.31261,-1.666009 -1.31261,-4.392204 0,-3.180561 2.06989,-5.14948 2.12037,-2.019404 5.35142,-2.019404 2.06989,0 3.83687,0.656306 1.76698,0.656306 1.76698,1.514553 0,0.605821 -0.60582,1.666008 -0.55534,1.060187 -0.95922,1.060187 -0.10097,0 -1.21164,-0.605821 -1.06019,-0.656306 -2.57474,-0.656306 -1.46407,0 -2.47377,0.807761 -0.95922,0.807762 -0.95922,2.27183 0,1.716493 0.95922,2.877651 1.0097,1.110672 2.82716,2.019404 3.07959,1.413582 4.54366,3.231046 1.46407,1.817464 1.46407,4.84657 0,3.382501 -2.22135,5.45239 -2.22134,2.069889 -5.55336,2.069889 z" />
      <path
         id="path2432"
         style="font-style:normal;font-variant:normal;font-weight:normal;font-stretch:normal;font-size:50.4851px;font-family:'Asap Condensed';-inkscape-font-specification:'Asap Condensed, Normal';font-variant-ligatures:normal;font-variant-caps:normal;font-variant-numeric:normal;font-feature-settings:normal;text-align:start;writing-mode:lr-tb;text-anchor:start;fill:#4e4e4e;fill-opacity:1;stroke-width:1.26213"
         d="m -215.07746,-28.662969 q -2.22134,0 -3.93783,-1.312612 -1.7165,-1.363098 -1.7165,-4.796085 v -16.962993 h -1.66601 q -0.50485,0 -0.75727,-0.353396 -0.25243,-0.353396 -0.25243,-1.161157 v -0.605822 q 0,-0.807761 0.25243,-1.161157 0.25242,-0.353396 0.75727,-0.353396 h 1.66601 l 0.60582,-5.300935 q 0.10097,-1.110672 1.61553,-1.110672 h 0.50485 q 1.51455,0 1.51455,1.110672 v 5.300935 h 3.33202 q 0.55533,0 0.75727,0.353396 0.25243,0.353396 0.25243,1.161157 v 0.605822 q 0,0.807761 -0.25243,1.161157 -0.20194,0.353396 -0.75727,0.353396 h -3.33202 v 16.256202 q 0,1.817463 0.50485,2.524255 0.50485,0.656306 1.46407,0.656306 0.65631,0 1.11067,-0.10097 0.45437,-0.151456 0.60582,-0.151456 0.45437,0 0.75728,0.908732 0.30291,0.908732 0.30291,1.514553 0,0.807762 -1.06019,1.161158 -1.0097,0.30291 -2.27183,0.30291 z" />
      <path
         id="path2434"
         style="font-style:normal;font-variant:normal;font-weight:normal;font-stretch:normal;font-size:50.4851px;font-family:'Asap Condensed';-inkscape-font-specification:'Asap Condensed, Normal';font-variant-ligatures:normal;font-variant-caps:normal;font-variant-numeric:normal;font-feature-settings:normal;text-align:start;writing-mode:lr-tb;text-anchor:start;fill:#4e4e4e;fill-opacity:1;stroke-width:1.26213"
         d="m -207.2049,-28.864909 q -2.0194,0 -2.0194,-1.110672 v -17.821241 q 0,-3.332016 -0.30291,-4.745599 -0.30291,-1.464068 -0.30291,-1.615523 0,-0.605821 0.95921,-0.858247 0.95922,-0.302911 1.76698,-0.302911 0.70679,0 1.0097,0.757277 0.3534,0.757276 0.50485,1.615523 0.20194,0.807762 0.25243,1.060187 2.42328,-3.786382 5.30094,-3.786382 1.26212,0 1.91843,0.555336 0.70679,0.555336 0.70679,1.413583 0,0.858246 -0.30291,1.817463 -0.30291,0.908732 -0.70679,0.908732 -0.25243,0 -0.90873,-0.252425 -0.65631,-0.302911 -1.56504,-0.302911 -1.31261,0 -2.52426,1.110672 -1.16115,1.060187 -1.56503,1.968919 v 18.477547 q 0,1.110672 -2.01941,1.110672 z" />
      <path
         id="path2436"
         style="font-style:normal;font-variant:normal;font-weight:normal;font-stretch:normal;font-size:50.4851px;font-family:'Asap Condensed';-inkscape-font-specification:'Asap Condensed, Normal';font-variant-ligatures:normal;font-variant-caps:normal;font-variant-numeric:normal;font-feature-settings:normal;text-align:start;writing-mode:lr-tb;text-anchor:start;fill:#4e4e4e;fill-opacity:1;stroke-width:1.26213"
         d="m -187.94387,-28.662969 q -4.7456,0 -7.26985,-3.432987 -2.47377,-3.432986 -2.47377,-9.945564 0,-6.563063 2.47377,-10.09702 2.52425,-3.533957 7.26985,-3.533957 4.69512,0 7.1184,3.533957 2.47377,3.483472 2.47377,10.09702 0,6.563063 -2.42328,9.996049 -2.42329,3.382502 -7.16889,3.382502 z m -0.10097,-3.634927 q 2.67571,0 3.93784,-2.3728 1.31261,-2.423285 1.31261,-7.471794 0,-5.04851 -1.31261,-7.471795 -1.26213,-2.423285 -3.93784,-2.423285 -2.67571,0 -3.93784,2.423285 -1.21164,2.372799 -1.21164,7.471795 0,5.048509 1.21164,7.471794 1.26213,2.3728 3.93784,2.3728 z" />
      <path
         id="path2438"
         style="font-style:normal;font-variant:normal;font-weight:normal;font-stretch:normal;font-size:50.4851px;font-family:'Asap Condensed';-inkscape-font-specification:'Asap Condensed, Normal';font-variant-ligatures:normal;font-variant-caps:normal;font-variant-numeric:normal;font-feature-settings:normal;text-align:start;writing-mode:lr-tb;text-anchor:start;fill:#4e4e4e;fill-opacity:1;stroke-width:1.26213"
         d="m -174.42854,-28.864909 q -1.86794,0 -1.86794,-1.110672 v -17.821241 q 0,-3.281531 -0.25243,-4.745599 -0.25242,-1.464068 -0.25242,-1.615523 0,-0.605821 1.06018,-0.858247 1.11067,-0.302911 1.86795,-0.302911 0.70679,0 0.95922,0.656307 0.30291,0.656306 0.45436,1.514553 0.15146,0.858246 0.20194,1.262127 1.16116,-1.766978 2.82717,-2.77668 1.66601,-1.009702 3.53396,-1.009702 3.13007,0 4.84657,2.120374 1.71649,2.069889 1.71649,5.755301 v 17.821241 q 0,1.110672 -1.91843,1.110672 h -0.50486 q -1.96891,0 -1.96891,-1.110672 v -17.41736 q 0,-2.221344 -0.90874,-3.382502 -0.90873,-1.211642 -2.67571,-1.211642 -1.36309,0 -2.62522,1.009702 -1.26213,0.959217 -2.01941,2.524255 v 18.477547 q 0,1.110672 -1.91843,1.110672 z" />
      <path
         id="path2440"
         style="font-style:normal;font-variant:normal;font-weight:normal;font-stretch:normal;font-size:50.4851px;font-family:'Asap Condensed';-inkscape-font-specification:'Asap Condensed, Normal';font-variant-ligatures:normal;font-variant-caps:normal;font-variant-numeric:normal;font-feature-settings:normal;text-align:start;writing-mode:lr-tb;text-anchor:start;fill:#4e4e4e;fill-opacity:1;stroke-width:1.26213"
         d="m -150.16697,-28.662969 q -3.3825,0 -5.4019,-2.019404 -1.96892,-2.069889 -1.96892,-5.805786 0,-3.786383 1.96892,-5.805787 1.96891,-2.019404 4.89705,-2.67571 2.92814,-0.706791 6.71452,-0.757277 v -2.372799 q 0,-1.716494 -1.06019,-2.827166 -1.06019,-1.110672 -3.33202,-1.110672 -1.76697,0 -3.13007,0.454366 -1.31261,0.403881 -2.27183,0.908732 -0.95922,0.454366 -1.11067,0.454366 -0.50485,0 -1.16116,-0.959217 -0.60582,-1.009702 -0.60582,-1.514553 0,-0.656307 1.16116,-1.363098 1.21164,-0.706791 3.13007,-1.161157 1.96892,-0.454366 4.03881,-0.454366 4.03881,0 6.31064,2.019404 2.27183,2.019404 2.27183,5.603846 v 11.611573 q 0,3.332016 0.30291,4.796084 0.30291,1.413583 0.30291,1.565038 0,0.605822 -0.95922,0.908732 -0.95922,0.252426 -1.76698,0.252426 -0.75727,0 -1.11067,-0.757277 -0.3534,-0.807761 -0.65631,-2.221344 -2.67571,3.231046 -6.56306,3.231046 z m 0.85825,-3.988323 q 3.28153,0 5.35142,-2.87765 v -6.512578 q -2.82717,0.05049 -4.69512,0.403881 -1.81746,0.353395 -3.13007,1.565038 -1.31261,1.161157 -1.31261,3.533957 0,3.887352 3.78638,3.887352 z" />
      <path
         id="path2442"
         style="font-style:normal;font-variant:normal;font-weight:normal;font-stretch:normal;font-size:50.4851px;font-family:'Asap Condensed';-inkscape-font-specification:'Asap Condensed, Normal';font-variant-ligatures:normal;font-variant-caps:normal;font-variant-numeric:normal;font-feature-settings:normal;text-align:start;writing-mode:lr-tb;text-anchor:start;fill:#4e4e4e;fill-opacity:1;stroke-width:1.26213"
         d="m -130.88706,-28.612484 q -3.13008,0 -4.84657,-1.918434 -1.71649,-1.968918 -1.71649,-5.401905 V -54.3094 q 0,-1.110672 1.91843,-1.110672 h 0.50485 q 1.91844,0 1.91844,1.110672 v 17.72027 q 0,2.06989 0.90873,3.180562 0.90873,1.110672 2.67571,1.110672 1.41358,0 2.62522,-0.959217 1.26213,-0.959217 2.06989,-2.57474 V -54.3094 q 0,-1.110672 1.91844,-1.110672 h 0.50485 q 1.91843,0 1.91843,1.110672 v 17.821241 q 0,3.281531 0.25243,4.796084 0.25242,1.464068 0.25242,1.615523 0,0.605822 -1.06019,0.858247 -1.06018,0.252426 -1.86794,0.252426 -0.7068,0 -1.00971,-0.656307 -0.25242,-0.656306 -0.40388,-1.514553 -0.15145,-0.858246 -0.20194,-1.262127 -1.16116,1.766978 -2.82716,2.77668 -1.66601,1.009702 -3.53396,1.009702 z" />
      <path
         id="path2444"
         style="font-style:normal;font-variant:normal;font-weight:normal;font-stretch:normal;font-size:50.4851px;font-family:'Asap Condensed';-inkscape-font-specification:'Asap Condensed, Normal';font-variant-ligatures:normal;font-variant-caps:normal;font-variant-numeric:normal;font-feature-settings:normal;text-align:start;writing-mode:lr-tb;text-anchor:start;fill:#4e4e4e;fill-opacity:1;stroke-width:1.26213"
         d="m -110.51285,-28.662969 q -2.22134,0 -3.93783,-1.312612 -1.7165,-1.363098 -1.7165,-4.796085 v -16.962993 h -1.66601 q -0.50485,0 -0.75727,-0.353396 -0.25243,-0.353396 -0.25243,-1.161157 v -0.605822 q 0,-0.807761 0.25243,-1.161157 0.25242,-0.353396 0.75727,-0.353396 h 1.66601 l 0.60582,-5.300935 q 0.10097,-1.110672 1.61553,-1.110672 h 0.50485 q 1.51455,0 1.51455,1.110672 v 5.300935 h 3.33202 q 0.55533,0 0.75727,0.353396 0.25243,0.353396 0.25243,1.161157 v 0.605822 q 0,0.807761 -0.25243,1.161157 -0.20194,0.353396 -0.75727,0.353396 h -3.33202 v 16.256202 q 0,1.817463 0.50485,2.524255 0.50485,0.656306 1.46407,0.656306 0.65631,0 1.11067,-0.10097 0.45437,-0.151456 0.60582,-0.151456 0.45437,0 0.75728,0.908732 0.30291,0.908732 0.30291,1.514553 0,0.807762 -1.06019,1.161158 -1.0097,0.30291 -2.27183,0.30291 z" />
      <path
         id="path2446"
         style="font-style:normal;font-variant:normal;font-weight:normal;font-stretch:normal;font-size:50.4851px;font-family:'Asap Condensed';-inkscape-font-specification:'Asap Condensed, Normal';font-variant-ligatures:normal;font-variant-caps:normal;font-variant-numeric:normal;font-feature-settings:normal;text-align:start;writing-mode:lr-tb;text-anchor:start;fill:#4e4e4e;fill-opacity:1;stroke-width:1.26213"
         d="m -91.171911,-28.662969 q -2.069889,0 -3.735897,-1.312612 -1.615523,-1.363098 -1.615523,-4.796085 v -31.048336 q 0,-1.110672 2.019404,-1.110672 h 0.20194 q 2.019404,0 2.019404,1.110672 v 30.644455 q 0,2.877651 1.867949,2.877651 0.605821,0 1.009702,-0.10097 0.40388,-0.151456 0.605821,-0.151456 0.454366,0 0.757276,0.959217 0.302911,0.908732 0.302911,1.413583 0,0.757277 -1.110672,1.161157 -1.110672,0.353396 -2.322315,0.353396 z" />
      <path
         id="path2448"
         style="font-style:normal;font-variant:normal;font-weight:normal;font-stretch:normal;font-size:50.4851px;font-family:'Asap Condensed';-inkscape-font-specification:'Asap Condensed, Normal';font-variant-ligatures:normal;font-variant-caps:normal;font-variant-numeric:normal;font-feature-settings:normal;text-align:start;writing-mode:lr-tb;text-anchor:start;fill:#4e4e4e;fill-opacity:1;stroke-width:1.26213"
         d="m -80.24691,-28.662969 q -3.382501,0 -5.401905,-2.019404 -1.968919,-2.069889 -1.968919,-5.805786 0,-3.786383 1.968919,-5.805787 1.968919,-2.019404 4.897054,-2.67571 2.928136,-0.706791 6.714519,-0.757277 v -2.372799 q 0,-1.716494 -1.060188,-2.827166 -1.060187,-1.110672 -3.332016,-1.110672 -1.766979,0 -3.130076,0.454366 -1.312613,0.403881 -2.27183,0.908732 -0.959217,0.454366 -1.110672,0.454366 -0.504851,0 -1.161157,-0.959217 -0.605821,-1.009702 -0.605821,-1.514553 0,-0.656307 1.161157,-1.363098 1.211642,-0.706791 3.130076,-1.161157 1.968919,-0.454366 4.038808,-0.454366 4.038808,0 6.310637,2.019404 2.27183,2.019404 2.27183,5.603846 v 11.611573 q 0,3.332016 0.302911,4.796084 0.30291,1.413583 0.30291,1.565038 0,0.605822 -0.959217,0.908732 -0.959217,0.252426 -1.766978,0.252426 -0.757277,0 -1.110672,-0.757277 -0.353396,-0.807761 -0.656307,-2.221344 -2.67571,3.231046 -6.563063,3.231046 z m 0.858247,-3.988323 q 3.281531,0 5.351421,-2.87765 v -6.512578 q -2.827166,0.05049 -4.695115,0.403881 -1.817463,0.353395 -3.130076,1.565038 -1.312612,1.161157 -1.312612,3.533957 0,3.887352 3.786382,3.887352 z" />
      <path
         id="path2450"
         style="font-style:normal;font-variant:normal;font-weight:normal;font-stretch:normal;font-size:50.4851px;font-family:'Asap Condensed';-inkscape-font-specification:'Asap Condensed, Normal';font-variant-ligatures:normal;font-variant-caps:normal;font-variant-numeric:normal;font-feature-settings:normal;text-align:start;writing-mode:lr-tb;text-anchor:start;fill:#4e4e4e;fill-opacity:1;stroke-width:1.26213"
         d="m -56.928185,-28.662969 q -1.766979,0 -3.332017,-0.959217 -1.565038,-0.959217 -2.726195,-2.827165 l -0.504851,2.978621 q -0.252426,0.605821 -1.565039,0.605821 h -0.30291 q -1.666008,0 -1.666008,-1.110672 v -35.844421 q 0,-1.110672 1.918433,-1.110672 h 0.555336 q 1.867949,0 1.867949,1.110672 v 12.722245 q 1.110672,-1.262128 2.322315,-1.918434 1.262127,-0.656306 3.029106,-0.656306 3.786382,0 6.058212,3.533957 2.271829,3.483472 2.271829,9.794109 0,4.038808 -1.009702,7.168884 -0.959217,3.079591 -2.77668,4.796085 -1.766979,1.716493 -4.139778,1.716493 z m -1.060188,-3.685412 q 2.17086,0 3.281532,-2.625225 1.161157,-2.625226 1.161157,-7.42131 0,-9.541684 -4.846569,-9.541684 -2.524255,0 -4.291234,2.27183 v 13.832917 q 0.959217,1.666008 2.170859,2.57474 1.262128,0.908732 2.524255,0.908732 z" />
      <path
         id="path2452"
         style="font-style:normal;font-variant:normal;font-weight:normal;font-stretch:normal;font-size:50.4851px;font-family:'Asap Condensed';-inkscape-font-specification:'Asap Condensed, Normal';font-variant-ligatures:normal;font-variant-caps:normal;font-variant-numeric:normal;font-feature-settings:normal;text-align:start;writing-mode:lr-tb;text-anchor:start;fill:#4e4e4e;fill-opacity:1;stroke-width:1.26213"
         d="m -41.452887,-28.511514 q -1.817464,0 -3.432987,-0.504851 -1.565038,-0.555336 -2.524255,-1.312612 -0.908732,-0.757277 -0.908732,-1.312613 0,-0.555336 0.656307,-1.565038 0.656306,-1.009702 1.060187,-1.009702 0.10097,0 0.858247,0.555336 0.807761,0.555336 1.817463,1.009702 1.009702,0.403881 2.27183,0.403881 1.867948,0 2.827165,-0.908732 1.009702,-0.959217 1.009702,-2.77668 0,-1.766979 -1.110672,-2.978621 -1.060187,-1.211642 -3.332017,-2.322315 -2.77668,-1.262127 -4.139778,-2.928135 -1.312612,-1.666009 -1.312612,-4.392204 0,-3.180561 2.069889,-5.14948 2.120374,-2.019404 5.35142,-2.019404 2.069889,0 3.836868,0.656306 1.766978,0.656306 1.766978,1.514553 0,0.605821 -0.605821,1.666008 -0.555336,1.060187 -0.959217,1.060187 -0.10097,0 -1.211642,-0.605821 -1.060187,-0.656306 -2.57474,-0.656306 -1.464068,0 -2.47377,0.807761 -0.959217,0.807762 -0.959217,2.27183 0,1.716493 0.959217,2.877651 1.009702,1.110672 2.827165,2.019404 3.079592,1.413582 4.543659,3.231046 1.464068,1.817464 1.464068,4.84657 0,3.382501 -2.221344,5.45239 -2.221344,2.069889 -5.553361,2.069889 z" />
    </g>
    <path
       d="m -311.37759,-46.510821 c -7.62339,-0.230209 -27.45616,14.985153 -41.62186,4.918088 l -1.06522,-0.925885 6e-5,1.111533 c 0.0347,2.200457 0.28699,4.392337 0.75291,6.544111 l 1.62377,5.317324 c 3.14339,7.882183 9.16739,14.302486 16.87277,17.982665 l 0.73595,0.08664 c 11.27836,1.099143 28.31843,0.562526 34.33033,-11.222172 1.52313,-6.691376 -2.98653,-23.61873 -11.275,-23.789587 -0.11484,-0.01156 -0.23272,-0.01918 -0.35371,-0.02257 z"
       style="fill:#4d4d4d;fill-opacity:0.988235;stroke-width:0.479893;stroke-linecap:round;stroke-opacity:0.532646"
       id="path1776-1-6"
       sodipodi:nodetypes="ccccccccccc" />
  </g>
</svg>
